Coordinates
version=1
nRows=8
nColumns=34
inDegrees=yes

Units are S.I. units (second, meters, Newtons, ...)
If the header above contains a line with 'inDegrees', this indicates whether rotational values are in degrees (yes) or radians (no).

endheader
time	pelvis_tilt	pelvis_list	pelvis_rotation	pelvis_tx	pelvis_ty	pelvis_tz	hip_flexion_r	hip_adduction_r	hip_rotation_r	knee_angle_r	ankle_angle_r	subtalar_angle_r	mtp_angle_r	hip_flexion_l	hip_adduction_l	hip_rotation_l	knee_angle_l	ankle_angle_l	subtalar_angle_l	mtp_angle_l	lumbar_extension	lumbar_bending	lumbar_rotation	arm_flex_r	arm_add_r	arm_rot_r	elbow_flex_r	pro_sup_r	arm_flex_l	arm_add_l	arm_rot_l	elbow_flex_l	pro_sup_l
      0.00000000	     -5.68774273	     -1.43770686	     -0.20034877	      0.24375768	      0.88192505	     -0.04437643	     -1.89459931	     -0.24729034	     -2.04065813	      2.75135810	     -1.17957139	     -5.71282969	      0.00000000	     -1.41191042	     -7.11361787	     -2.96656345	      1.40825561	      4.23563065	      2.46695392	      0.00000000	     -1.83997093	      3.46017411	     -0.95375500	     43.67097525	     14.10741668	     55.42533118	    129.04301195	    119.46165552	     49.60155782	     19.11523446	     59.59009658	    132.20553009	     91.37543690
      0.01666670	     -7.88397079	     -1.25802944	     -0.32355706	      0.24465918	      0.87828464	     -0.04472160	      0.28831999	     -0.25227819	     -0.78593964	      2.44145753	      0.48383724	     -4.07597102	      0.00000000	      0.32068594	     -6.55319000	     -2.21749382	      0.00000000	      3.67483680	      4.27939767	      0.00000000	      0.78480234	      3.34557758	     -1.64940288	     44.71327976	     14.89136053	     54.64517154	    131.00711605	    119.10545107	     53.25962565	     19.64514546	     58.20306762	    132.79127228	     92.04014996
      0.03333330	     -9.09071969	     -0.93694418	      0.07118364	      0.24652286	      0.88121760	     -0.04527823	      1.15932608	     -0.46659183	     -2.07314298	      1.38823866	      0.50402107	     -2.69111083	      0.00000000	      1.60326335	     -6.24161430	     -2.60863793	      0.00000000	      3.16031230	      5.98271105	      0.00000000	      1.94777488	      2.55024302	     -1.12972833	     43.67029407	     14.76362380	     55.81489482	    133.09003573	    118.63259893	     53.32770997	     20.23679882	     58.89058796	    133.12548337	     93.36657343
      0.05000000	     -9.29131927	     -0.59268615	      0.31472566	      0.24475490	      0.87615942	     -0.04498796	      1.02757751	     -0.87934192	     -2.25233780	      0.73809084	      0.55765894	     -2.48629247	      0.00000000	      1.84532123	     -5.78654457	     -2.59821426	      0.00000000	      3.19114179	      6.00263340	      0.00000000	      2.06133339	      1.81417103	     -1.20861302	     42.75791824	     14.95867264	     56.46424805	    132.83397387	    118.51806792	     54.44383625	     20.72190155	     58.89447334	    132.77997696	     93.64583037
      0.06666670	     -9.49664711	     -0.48920187	      0.58579012	      0.24466287	      0.88054626	     -0.04512821	      1.09119719	     -0.92831580	     -2.64184609	      0.14177302	      0.59955451	     -2.46552304	      0.00000000	      2.14137461	     -5.63434621	     -2.38617988	      0.00000000	      3.14321320	      6.17250341	      0.00000000	      2.08456056	      1.54910725	     -1.04316894	     42.08353069	     14.70147236	     57.74235365	    132.74417355	    118.33717739	     54.74801633	     20.61620463	     59.60117897	    132.06088246	     93.92318032
      0.08333330	     -9.59486776	     -0.37275871	      0.72229086	      0.24614986	      0.87945980	     -0.04569176	      1.17468347	     -1.01360089	     -2.93071242	      0.00000000	      0.88378203	     -2.63111237	      0.00000000	      2.23525357	     -5.46219298	     -2.41000306	      0.00000000	      3.59420066	      6.01341886	      0.00000000	      2.13343824	      1.28294592	     -0.78617115	     41.94950168	     14.36844828	     58.11266438	    132.27031393	    118.21092167	     54.82131284	     20.79360182	     59.99758974	    131.74965143	     94.00706950
      0.10000000	     -9.64890367	     -0.35337541	      0.77460447	      0.24536308	      0.87884107	     -0.04573813	      1.30203287	     -1.02178291	     -2.94629353	      0.00000000	      0.91563301	     -2.63719970	      0.00000000	      2.31272350	     -5.41525285	     -2.34192353	      0.00000000	      3.65771661	      6.02791661	      0.00000000	      1.98636013	      1.21972613	     -0.68774114	     41.91903855	     14.24337276	     58.17141914	    132.08945387	    118.17172955	     54.79890906	     20.75409923	     60.10473980	    131.61076413	     94.01549553
      0.11666670	     -9.60932854	     -0.35313929	      0.78357792	      0.24356328	      0.87986412	     -0.04528214	      1.32798931	     -1.00168546	     -2.94792011	      0.00000000	      0.91534406	     -2.63740097	      0.00000000	      2.30876138	     -5.38858259	     -2.33732573	      0.00000000	      3.65774608	      6.02983868	      0.00000000	      2.00559155	      1.21573259	     -0.68306329	     41.91583781	     14.23798274	     58.17648354	    132.08056361	    118.16932945	     54.79551431	     20.75406607	     60.11539669	    131.60372745	     94.01564927
